<svg width="184" height="224" viewBox="0 0 184 224" fill="none" xmlns="http://www.w3.org/2000/svg">
<path d="M90.9547 207.927L82.9482 182.707H99.7619L90.9547 207.927Z" fill="#FFC845" stroke="#FFC845" stroke-width="10"/>
<path d="M47.8182 122.261L91.355 97.1251L134.892 122.261V172.533L91.355 197.669L47.8182 172.533V122.261Z" fill="black" stroke="#FFC845" stroke-width="10"/>
<path d="M40.5363 86.1128L91.3536 56.7735L142.171 86.1128V144.792L91.3536 174.131L40.5363 144.792V86.1128Z" fill="black" stroke="#FFC845" stroke-width="10"/>
<path d="M47.8174 81.9094L91.3541 56.7735L134.891 81.9094V111.445L91.3541 136.58L47.8174 111.445V81.9094Z" fill="black" stroke="#FFC845" stroke-width="10"/>
<circle cx="91.3538" cy="66.1341" r="34.2318" fill="black" stroke="#FFC845" stroke-width="10"/>
<path d="M5 154.296V102.619L88.0353 54.6223V118.167L15.4693 159.157L5 154.296Z" fill="black" stroke="#FFC845" stroke-width="10"/>
<path d="M178.829 154.296V102.619L95.7938 54.6223V118.167L168.36 159.157L178.829 154.296Z" fill="black" stroke="#FFC845" stroke-width="10"/>
<path d="M130.213 5.26506C118.264 2.8015 112.287 15.7186 107.107 25.9184C113.119 20.4159 116.214 16.6206 123.147 14.9165C130.08 13.2123 136.361 7.89781 130.213 5.26506Z" fill="#FFC845"/>
<path d="M52.6162 5.15569C64.5655 2.69212 70.5424 15.6092 75.7219 25.809C69.7104 20.3066 66.6156 16.5113 59.6824 14.8071C52.7493 13.1029 46.4679 7.78844 52.6162 5.15569Z" fill="#FFC845"/>
</svg>
